<svg xmlns="http://www.w3.org/2000/svg" width="24" height="24" viewBox="0 0 24 24"><path d="M19 2c1.654 0 3 1.346 3 3v14c0 1.654-1.346 3-3 3h-14c-1.654 0-3-1.346-3-3v-14c0-1.654 1.346-3 3-3h14zm5 3c0-2.761-2.238-5-5-5h-14c-2.762 0-5 2.239-5 5v14c0 2.761 2.238 5 5 5h14c2.762 0 5-2.239 5-5v-14zm-8 5c.552 0 1 .449 1 1s-.448 1-1 1-1-.449-1-1 .448-1 1-1zm0-2c-1.657 0-3 1.343-3 3s1.343 3 3 3 3-1.343 3-3-1.343-3-3-3zm-8 2c-1.657 0-3 1.343-3 3s1.343 3 3 3 3-1.343 3-3-1.343-3-3-3zm8-4c.343 0 .677.035 1 .101v-1.101c0-.552-.447-1-1-1s-1 .448-1 1v1.101c.323-.066.657-.101 1-.101zm-8 2c.343 0 .677.035 1 .101v-3.101c0-.552-.447-1-1-1s-1 .448-1 1v3.101c.323-.066.657-.101 1-.101zm8 8c-.343 0-.677-.035-1-.101v3.101c0 .552.447 1 1 1s1-.448 1-1v-3.101c-.323.066-.657.101-1 .101zm-8 2c-.343 0-.677-.035-1-.101v1.101c0 .552.447 1 1 1s1-.448 1-1v-1.101c-.323.066-.657.101-1 .101z"/></svg>